<svg width="297mm" height="210mm" inkscape:version="0.92.3 (2405546, 2018-03-11)" sodipodi:docname="nagelrolle.svg" version="1.1" viewBox="0 0 297 210" xmlns="http://www.w3.org/2000/svg" xmlns:cc="http://creativecommons.org/ns#" xmlns:dc="http://purl.org/dc/elements/1.1/" xmlns:inkscape="http://www.inkscape.org/namespaces/inkscape" xmlns:rdf="http://www.w3.org/1999/02/22-rdf-syntax-ns#" xmlns:sodipodi="http://sodipodi.sourceforge.net/DTD/sodipodi-0.dtd"><title>cuterly knife</title><sodipodi:namedview id="base" bordercolor="#666666" borderopacity="1.0" inkscape:current-layer="layer2" inkscape:cx="537.53694" inkscape:cy="390.70346" inkscape:document-units="mm" inkscape:pageopacity="0.0" inkscape:pageshadow="2" inkscape:window-height="996" inkscape:window-maximized="1" inkscape:window-width="1920" inkscape:window-x="-8" inkscape:window-y="-8" inkscape:zoom="0.73855479" pagecolor="#ffffff" showgrid="false"/><metadata><rdf:RDF><cc:Work rdf:about=""><dc:format>image/svg+xml</dc:format><dc:type rdf:resource="http://purl.org/dc/dcmitype/StillImage"/><dc:title>cuterly knife</dc:title></cc:Work></rdf:RDF></metadata><g fill="#fff" fill-rule="evenodd" stroke="#000" inkscape:groupmode="layer" inkscape:label="Ebene 2"><path d="m218.85 85.63c-9.5439-2.5513-23.907-8.6462-28.915-9.9219s-17.614-1.228-19.567-1.9682-7.8115-2.9608-11.717-4.4412c-3.2758-0.22049-4.6656 4.9964-4.6656 4.9964-0.32263 4.1341 0.3819 9.4899 3.5678 11.835l55.81-0.57873c1.6064-0.063 3.881 0.14128 5.4874 0.07828z" stroke-miterlimit="3.6667" stroke-width="1.0583" inkscape:connector-curvature="0" sodipodi:nodetypes="czzcccccc"/><path d="m169.99 89.809c-13.689-6.9767-24.581-16.571-37.078-24.54-3.1859-2.0314-3.4125-5.2964-5.6053-8.9453s-3.1346-4.9144-9.6201-10.4-36.558-35.372-38.343-34.433c-1.7847 0.93841 21.158 28.318 37.627 39.628 1.377 1.4095-0.43468 3.5237-2.3286 2.3286-8.9235-6.5148-37.764-39.54-39.586-38.153s21.511 28.754 36.541 40.661c1.0495 1.1037-0.30754 2.8407-1.7912 1.7912-15.144-11.545-38.733-39.916-39.944-38.87s19.443 27.965 36.004 41.377c1.9994 1.6664 0.53385 3.1845-1.7912 2.1495-5.1749-1.415-36.984-40.865-38.775-39.09s22.398 33.992 36.447 43.389c3.2278 2.0916 6.8356 2.9167 9.4935 3.0451 4.3586-0.35824 11.204-1.2259 13.076-1.0747s4.5608 1.3112 5.3737 1.7912c1.1489 0.67851 30.272 22.928 30.272 22.928z" stroke-width="1.0583" inkscape:connector-curvature="0" sodipodi:nodetypes="cszzzcczcczcczcczscc"/><path d="m299.23 153.93s-48.638-52.217-63.748-61.48c-15.11-9.263-13.45-6.663-19.655-6.8036s-2.5161-0.37611-15.875-0.37798c-13.359-0.0019-64.495 0.70773-66.448 2.7236-1.9529 2.0159-8.8522 4.3799-9.5249 10.884-0.67279 6.5037 3.9793 15.971 8.3155 20.789s12.914 4.7247 15.497 5.6696c1.5806-2.5964 7.4335-9.8274 8.6934-12.095 1.2599-2.2678 5.0397-9.0714 7.5595-13.607-1.1864 2.3719-4.2916 8.1172-7.6404 13.581-4.9139 0.13075-9.9835-0.0789-14.612 0.33123 4.5698-0.40312 13.138-0.11914 14.713-0.15826-1.4178 2.3814-7.1415 9.5322-8.7131 11.948-10.767 16.421 2.4395 24.871 7.9375 26.458s6.2976 0.76419 9.4464 1.1463c0.12468-2.0199-0.0658-5.7805 0.72253-8.8328 0.61986-2.3999 3.0568-9.377 5.2242-12.682l-5.2786 12.762c0.0736 8.4367-2.5674 28.038 4.41 32.807 0 0-1.5662-5.0397 4.152-14.399-5.6921 9.5506-4.2517 12.831-4.152 14.399 0.0998 1.5676 4.655 8.8867 6.949 10.023 2.2941 1.1359 11.47 5.6795 13.764 6.8154 2.2941 1.1359 10.144-1.038 14.465 0.25384 4.3209 1.2918 17.369 5.3025 25.358 6.4279s14.675-2.7904 21.323-1.0953 15.096 9.8542 20.64 13.445l26.321-0.0783z" stroke-linecap="round" stroke-linejoin="round" stroke-miterlimit="3.6667" stroke-width="1.0583" inkscape:connector-curvature="0" sodipodi:nodetypes="czzzzzzczccccczcscccczzzzzzccc"/></g></svg>
